<svg xmlns="http://www.w3.org/2000/svg" width="800" height="562" fill="none"><path fill="#EDE8E8" fill-opacity=".7" d="M744.197 329.816c58.652 15.643 75.392 90.849 28.913 129.894l-99.679 83.733c-43.093 36.199-109.221 13.803-121.449-41.132L525.877 385.03c-12.228-54.935 38.157-103.265 92.535-88.762l125.785 33.548ZM512.094 34.14c38.203 31.887 23.22 93.742-25.34 104.613l-29.447 6.592c-43.378 9.711-81.886-29.473-71.421-72.676l6.281-25.929c10.465-43.202 62.635-60.422 96.761-31.937l23.166 19.336ZM306.264 232.534c31.377 25.474 19.15 75.952-20.406 84.244l-17.467 3.661c-34.527 7.238-64.804-23.993-56.499-58.279l3.612-14.91c8.305-34.286 49.517-48.2 76.905-25.965l13.855 11.249ZM83.573 275.822c29.583 23.3 18.131 70.578-18.835 77.758l-12.203 2.371c-31.467 6.112-58.699-22.397-51.153-53.552l2.438-10.061c7.546-31.155 44.806-44.042 69.988-24.207l9.765 7.691Z"/></svg>