<svg xmlns="http://www.w3.org/2000/svg" width="503" height="346" fill="none"><path fill="#EDE8E8" fill-opacity=".6" d="M414.176 123.105c66.328-1.323 109.113 69.774 76.886 127.761l-27.999 50.378c-32.126 57.806-114.755 59.23-148.856 2.566l-29.625-49.228c-34.101-56.664 5.85-129.008 71.97-130.327l57.624-1.15Z"/><path fill="#EDE8E8" fill-opacity=".7" d="M183.835 19.899c23.461 6.257 30.157 36.34 11.565 51.957l-54.551 45.825c-17.238 14.48-43.689 5.522-48.58-16.452L77.982 37.044C73.092 15.07 93.245-4.262 114.997 1.539l68.838 18.36ZM128.094 218.139c38.203 31.888 23.22 93.743-25.34 104.614l-29.447 6.592c-43.378 9.711-81.886-29.473-71.42-72.676l6.28-25.929c10.465-43.202 62.635-60.422 96.761-31.937l23.166 19.336Z"/></svg>