<svg xmlns="http://www.w3.org/2000/svg" fill="none" viewBox="0 0 886 605"><path fill="#EDE8E8" fill-opacity=".7" d="M126.477 172.03c72.658-14.311 133.475 55.554 109.287 125.547l-83.702 242.205C129.535 604.968 49.017 624.597-1 581.496V197.138l127.477-25.108ZM555.197 36.816c58.652 15.642 75.392 90.849 28.913 129.894l-99.679 83.733c-43.093 36.199-109.221 13.803-121.449-41.132l-26.105-117.28c-12.228-54.936 38.157-103.266 92.535-88.763l125.785 33.547ZM864.094 44.14c38.203 31.887 23.22 93.742-25.34 104.613l-29.447 6.592c-43.378 9.711-81.886-29.473-71.421-72.676l6.281-25.928c10.465-43.203 62.635-60.423 96.761-31.938l23.166 19.336Z"/></svg>